<?xml version="1.0" standalone="no"?>
<svg viewBox="0 0 200 200" xmlns="http://www.w3.org/2000/svg">
  <path fill="#0F62FE" d="M49.8,-61.3C64.6,-57.7,76.9,-43.3,82.4,-26.7C87.8,-10.1,86.3,8.7,80.1,25.4C73.8,42.1,62.8,56.6,48.6,61.3C34.5,65.9,17.2,60.6,0.5,59.9C-16.2,59.2,-32.5,63.1,-44,57.7C-55.6,52.2,-62.6,37.4,-69.3,21.4C-76.1,5.4,-82.6,-11.8,-77,-23.8C-71.4,-35.7,-53.6,-42.5,-38.7,-46.1C-23.9,-49.7,-11.9,-50.1,2.8,-53.9C17.4,-57.7,34.9,-64.9,49.8,-61.3Z" transform="translate(100 100)" />
</svg>
